HIERARCHY
ROOT Pelvis
{
	OFFSET 0.000000 0.000000 0.000000
	CHANNELS 6 Xposition Yposition Zposition Xrotation Yrotation Zrotation
	JOINT LeftUpLeg_virtual
	{
		OFFSET 0.000000 0.000000 0.000000
		CHANNELS 3 Xrotation Yrotation Zrotation
		JOINT LeftUpLeg
		{
			OFFSET 18.735201 -5.666702 -4.541200
			CHANNELS 3 Xrotation Yrotation Zrotation
			JOINT LeftLeg
			{
				OFFSET -0.021200 -31.938179 0.493100
				CHANNELS 3 Xrotation Yrotation Zrotation
				JOINT LeftFoot
				{
					OFFSET 0.021200 -31.938179 -4.336299
					CHANNELS 3 Xrotation Yrotation Zrotation
					JOINT LeftToeBase
					{
						OFFSET 0.943001 -26.722000 15.023500
						CHANNELS 3 Xrotation Yrotation Zrotation
						End Site
						{
							OFFSET 0 0 0
						}
					}
				}
			}
		}
	}
	JOINT RightUpLeg_virtual
	{
		OFFSET 0.000000 0.000000 0.000000
		CHANNELS 3 Xrotation Yrotation Zrotation
		JOINT RightUpLeg
		{
			OFFSET -18.735201 -5.666702 -4.541200
			CHANNELS 3 Xrotation Yrotation Zrotation
			JOINT RightLeg
			{
				OFFSET 0.018946 -31.938133 0.493100
				CHANNELS 3 Xrotation Yrotation Zrotation
				JOINT RightFoot
				{
					OFFSET -0.018946 -31.938126 -4.336299
					CHANNELS 3 Xrotation Yrotation Zrotation
					JOINT RightToeBase
					{
						OFFSET -0.943001 -26.722004 15.023500
						CHANNELS 3 Xrotation Yrotation Zrotation
						End Site
						{
							OFFSET 0 0 0
						}
					}
				}
			}
		}
	}
	JOINT Hips_virtual
	{
		OFFSET 0.000000 0.000000 0.000000
		CHANNELS 3 Xrotation Yrotation Zrotation
		JOINT Hips
		{
			OFFSET -0.000000 -0.000000 -0.000000
			CHANNELS 3 Xrotation Yrotation Zrotation
			JOINT Spine
			{
				OFFSET 0.000000 10.199997 -0.299500
				CHANNELS 3 Xrotation Yrotation Zrotation
				JOINT Spine1
				{
					OFFSET 0.000000 11.900002 -1.516600
					CHANNELS 3 Xrotation Yrotation Zrotation
					JOINT Spine2
					{
						OFFSET 0.000000 13.600006 -2.842500
						CHANNELS 3 Xrotation Yrotation Zrotation
						JOINT Neck_virtual
						{
							OFFSET 0.000000 0.000000 0.000000
							CHANNELS 3 Xrotation Yrotation Zrotation
							JOINT Neck
							{
								OFFSET 0.000000 9.624100 -2.890100
								CHANNELS 3 Xrotation Yrotation Zrotation
								JOINT Head
								{
									OFFSET 0.000000 14.068802 -1.351900
									CHANNELS 3 Xrotation Yrotation Zrotation
									End Site
									{
										OFFSET 0 0 0
									}
								}
							}
						}
						JOINT LeftShoulder_virtual
						{
							OFFSET 0.000000 0.000000 0.000000
							CHANNELS 3 Xrotation Yrotation Zrotation
							JOINT LeftShoulder
							{
								OFFSET 15.263000 10.923401 -0.547700
								CHANNELS 3 Xrotation Yrotation Zrotation
								JOINT LeftArm
								{
									OFFSET 25.438599 -2.830597 -13.032500
									CHANNELS 3 Xrotation Yrotation Zrotation
									JOINT LeftForeArm
									{
										OFFSET 29.960503 0.000000 0.000000
										CHANNELS 3 Xrotation Yrotation Zrotation
										JOINT LeftHand
										{
											OFFSET 27.849251 0.000000 0.000000
											CHANNELS 3 Xrotation Yrotation Zrotation
											End Site
											{
												OFFSET 0 0 0
											}
										}
									}
								}
							}
						}
						JOINT RightShoulder_virtual
						{
							OFFSET 0.000000 0.000000 0.000000
							CHANNELS 3 Xrotation Yrotation Zrotation
							JOINT RightShoulder
							{
								OFFSET -15.263000 10.923401 -0.547700
								CHANNELS 3 Xrotation Yrotation Zrotation
								JOINT RightArm
								{
									OFFSET -25.438599 -2.830597 -13.032500
									CHANNELS 3 Xrotation Yrotation Zrotation
									JOINT RightForeArm
									{
										OFFSET -29.960503 0.000000 0.000000
										CHANNELS 3 Xrotation Yrotation Zrotation
										JOINT RightHand
										{
											OFFSET -27.849251 0.000000 0.000000
											CHANNELS 3 Xrotation Yrotation Zrotation
											End Site
											{
												OFFSET 0 0 0
											}
										}
									}
								}
							}
						}
					}
				}
			}
		}
	}
}
MOTION
Frames: 8
Frame Time: 0.03333333
-1.685997 82.328339 -0.820228 0.000000 0.000000 0.000000 -4.490043 -30.439961 -1.520988 -48.445671 1.548510 15.732791 42.021878 -14.639274 0.974160 -11.346459 -14.327246 -13.848170 0.000000 0.000000 0.000000 9.187642 -41.437620 -0.893933 -21.522343 -16.409775 -22.432170 39.032496 -1.356436 2.681330 -14.409551 -6.561279 14.492198 0.000000 0.000000 0.000000 2.692913 -15.010818 0.911719 6.995790 -22.698554 3.785789 14.287396 -0.205921 -1.792142 6.334180 0.458035 -0.566069 0.000000 0.000000 0.000000 7.224828 -0.442573 1.402886 2.186754 -0.230412 0.752214 0.000000 0.000000 0.000000 4.675524 2.156792 -0.322539 1.182130 -3.462691 -3.642514 -23.588345 -9.958577 -39.812954 -1.368882 -37.790583 -3.222819 0.000000 0.000000 0.000000 4.715505 1.041837 2.522599 1.235853 11.016824 9.755394 2.474430 -1.911019 41.927932 1.500907 27.056360 4.612723 0.000000 0.000000 0.000000 
-1.770144 82.312080 -0.671262 0.000000 0.000000 0.000000 -4.582462 -29.328091 -1.652670 -48.523494 1.857198 15.676736 42.511879 -15.150492 1.056472 -11.114116 -14.852462 -14.157129 0.000000 0.000000 0.000000 9.182721 -39.874074 -0.894542 -21.334017 -15.984333 -22.134799 39.703200 -1.686761 2.609467 -13.855114 -6.765619 14.179189 0.000000 0.000000 0.000000 2.628422 -13.996654 0.849328 6.431792 -21.265258 3.588271 14.076650 0.203138 -1.543234 6.181178 0.694915 -0.357412 0.000000 0.000000 0.000000 7.610608 -0.218285 1.721853 2.410622 -0.136441 0.905783 0.000000 0.000000 0.000000 4.527998 2.344610 -0.175490 1.049163 -3.185399 -3.092053 -23.538242 -10.586333 -39.273407 -1.017364 -38.200196 -3.013720 0.000000 0.000000 0.000000 4.646952 1.235655 2.730488 1.086996 11.447650 10.507556 5.108808 -0.933379 41.251860 2.709280 26.705956 4.056654 0.000000 0.000000 0.000000 
-1.938160 82.301750 -0.357260 0.000000 0.000000 0.000000 -4.724447 -27.238718 -1.882204 -48.645488 2.435646 15.577211 43.474895 -16.062587 1.223709 -10.647417 -15.801033 -14.704439 0.000000 0.000000 0.000000 9.186526 -36.743088 -0.868519 -20.963606 -15.143337 -21.528382 41.016833 -2.264346 2.462038 -12.755737 -7.104825 13.589280 0.000000 0.000000 0.000000 2.488179 -12.062463 0.736192 5.309206 -18.537989 3.252761 13.659395 1.002093 -1.069401 5.888070 1.151604 0.032150 0.000000 0.000000 0.000000 8.293123 0.236896 2.293056 2.813127 0.055929 1.180227 0.000000 0.000000 0.000000 4.231938 2.708110 0.095889 0.775461 -2.630610 -2.076899 -23.495928 -11.667438 -38.232052 -0.391516 -38.920754 -2.620579 0.000000 0.000000 0.000000 4.510473 1.607457 3.113574 0.785883 12.272691 11.902565 10.072661 0.859498 39.803983 4.968672 26.065255 3.005717 0.000000 0.000000 0.000000 
-2.186553 82.330528 0.139657 0.000000 0.000000 0.000000 -4.854092 -24.406172 -2.161564 -48.758733 3.217498 15.452005 44.866447 -17.182092 1.476765 -9.943804 -16.995442 -15.363863 0.000000 0.000000 0.000000 9.217541 -32.084219 -0.776497 -20.425416 -13.915052 -20.604476 42.906033 -2.948364 2.238651 -11.141212 -7.464768 12.795347 0.000000 0.000000 0.000000 2.263019 -9.386574 0.595450 3.664431 -14.784633 2.885633 13.051575 2.149494 -0.416903 5.479077 1.795883 0.552721 0.000000 0.000000 0.000000 9.110730 0.920378 2.998529 3.310638 0.348326 1.516867 0.000000 0.000000 0.000000 3.794763 3.224167 0.452973 0.357731 -1.805771 -0.743750 -23.540981 -12.930791 -36.760208 0.382762 -39.795575 -2.088387 0.000000 0.000000 0.000000 4.306144 2.128588 3.613670 0.330489 13.422739 13.744360 16.777946 3.128006 37.479522 7.987134 25.225183 1.565760 0.000000 0.000000 0.000000 
-2.506275 82.426689 0.819688 0.000000 0.000000 0.000000 -4.920388 -21.110523 -2.451732 -48.812418 4.126093 15.314242 46.601513 -18.278180 1.807300 -9.004620 -18.224987 -15.980904 0.000000 0.000000 0.000000 9.286783 -26.054457 -0.587825 -19.746196 -12.357192 -19.379455 45.254252 -3.584228 1.950662 -9.076136 -7.726579 11.902144 0.000000 0.000000 0.000000 1.962367 -6.210765 0.457929 1.593146 -10.376183 2.608714 12.288551 3.579163 0.349396 4.985974 2.584079 1.141863 0.000000 0.000000 0.000000 9.864893 1.801978 3.697779 3.797109 0.730887 1.843937 0.000000 0.000000 0.000000 3.244809 3.861722 0.851546 -0.186371 -0.732141 0.739046 -23.714652 -14.119147 -34.946554 1.178604 -40.664016 -1.467973 0.000000 0.000000 0.000000 4.032133 2.762881 4.159314 -0.273374 14.806971 15.789239 24.412373 5.396847 34.301323 11.381178 24.269346 -0.131948 0.000000 0.000000 0.000000 
-2.884166 82.601021 1.652970 0.000000 0.000000 0.000000 -4.901644 -17.624559 -2.734911 -48.776228 5.089798 15.166003 48.550617 -19.134756 2.190969 -7.843505 -19.290623 -16.407769 0.000000 0.000000 0.000000 9.389947 -18.987257 -0.294614 -18.970046 -10.562273 -17.909905 47.903122 -4.051591 1.625103 -6.667930 -7.806502 11.030202 0.000000 0.000000 0.000000 1.621846 -2.808677 0.353011 -0.741297 -5.740459 2.513116 11.424967 5.203224 1.152404 4.442280 3.466115 1.735709 0.000000 0.000000 0.000000 10.371338 2.819127 4.262134 4.168840 1.179273 2.093106 0.000000 0.000000 0.000000 2.637365 4.586800 1.251131 -0.809637 0.558508 2.219775 -23.968326 -15.069735 -32.870900 1.914408 -41.398425 -0.796339 0.000000 0.000000 0.000000 3.684676 3.472944 4.679508 -1.007882 16.331732 17.791359 32.055440 7.202119 30.513628 14.737091 23.254352 -1.943596 0.000000 0.000000 0.000000 
-3.307338 82.843506 2.582182 0.000000 0.000000 0.000000 -4.806139 -14.177491 -3.012781 -48.647749 6.051160 14.998773 50.554130 -19.596897 2.587597 -6.496367 -20.041255 -16.538193 0.000000 0.000000 0.000000 9.508436 -11.386968 0.087775 -18.158808 -8.651345 -16.291471 50.677664 -4.297059 1.302223 -4.061687 -7.681628 10.291334 0.000000 0.000000 0.000000 1.297031 0.551920 0.298076 -3.126540 -1.293157 2.619026 10.524793 6.922622 1.913206 3.877274 4.391171 2.279274 0.000000 0.000000 0.000000 10.510462 3.891735 4.602752 4.351114 1.660419 2.214794 0.000000 0.000000 0.000000 2.047009 5.367835 1.620397 -1.442991 2.033697 3.587949 -24.164448 -15.724407 -30.585608 2.570994 -41.910761 -0.085812 0.000000 0.000000 0.000000 3.261165 4.225841 5.115096 -1.842882 17.922019 19.542213 38.856048 8.273852 26.538507 17.685967 22.220280 -3.725371 0.000000 0.000000 0.000000 
-3.766713 83.129150 3.538632 0.000000 0.000000 0.000000 -4.659299 -10.938596 -3.296457 -48.446962 6.969662 14.800158 52.453647 -19.600888 2.951687 -5.027260 -20.396427 -16.331978 0.000000 0.000000 0.000000 9.617194 -3.836229 0.530683 -17.383926 -6.755793 -14.639754 53.416980 -4.338940 1.028035 -1.420908 -7.393216 9.765374 0.000000 0.000000 0.000000 1.047390 3.644832 0.293051 -5.342698 2.638534 2.865939 9.646750 8.642362 2.564712 3.312415 5.312941 2.734008 0.000000 0.000000 0.000000 10.256046 4.947385 4.683258 4.315884 2.143455 2.187360 0.000000 0.000000 0.000000 1.546986 6.178901 1.938407 -2.017237 3.666465 4.780987 -24.150191 -16.079078 -28.121561 3.165506 -42.140000 0.665780 0.000000 0.000000 0.000000 2.766161 4.996589 5.425385 -2.737754 19.536124 20.895606 44.221353 8.616750 22.812634 19.975665 21.216798 -5.353576 0.000000 0.000000 0.000000 
